<mxfile host="app.diagrams.net" modified="2021-02-22T02:58:53.818Z" agent="5.0 (X11; Linux x86_64) AppleWebKit/537.36 (KHTML, like Gecko) Chrome/86.0.4240.111 Safari/537.36" etag="3IZ7pwLJ9sSC8zBYVyxA" version="14.4.2" type="github">
  <diagram id="d9rZfo0l3304BGlRPJ5S" name="Page-1">
    <mxGraphModel dx="1357" dy="897" grid="0" gridSize="10" guides="1" tooltips="1" connect="1" arrows="1" fold="1" page="1" pageScale="1" pageWidth="850" pageHeight="1100" math="0" shadow="0">
      <root>
        <mxCell id="0" />
        <mxCell id="1" parent="0" />
        <mxCell id="YbzAkUvpexVyC5OVkRLA-1" value="" style="rounded=0;whiteSpace=wrap;html=1;" vertex="1" parent="1">
          <mxGeometry x="364" y="481" width="120" height="60" as="geometry" />
        </mxCell>
        <mxCell id="YbzAkUvpexVyC5OVkRLA-2" value="" style="ellipse;whiteSpace=wrap;html=1;" vertex="1" parent="1">
          <mxGeometry x="387" y="213" width="120" height="80" as="geometry" />
        </mxCell>
      </root>
    </mxGraphModel>
  </diagram>
</mxfile>
